# xmcd CD database file
#
# Track frame offsets:
#	150
#	12527
#	24676
#	37058
#	47689
#	73235
#	87246
#	99257
#	112329
#	123093
#	137122
#	150965
#	164008
#	180798
#	195852
#	209783
#	240556
#	268796
#
# Disc length: 3979 seconds
#
# Revision: 0
# Processed by: cddbd v1.5.1PL2 Copyright (c) Steve Scherf et al.
# Submitted via: CDex 1.51
#
DISCID=fa0f8912
DTITLE=Dizzy Gillespie - Dizzy Atmosphere, CD 4
DYEAR=1900
DGENRE=Jazz
TTITLE0=Nice Work If You Can Get It
TTITLE1=She's Gone Again
TTITLE2=Thinking Of You
TTITLE3=Too Much Weight
TTITLE4=The Camp
TTITLE5=Birk's Works
TTITLE6=Tin Tin Deo
TTITLE7=Caravan
TTITLE8=Time On My Hands
TTITLE9=On The Sunny Side Of The Street
TTITLE10=Stardust
TTITLE11=The Bluest Blues
TTITLE12=They Can't Take That Away From Me
TTITLE13=Ooh-Shoo-Be-Doo
TTITLE14=Swing Low Sweet Cadillac
TTITLE15=It's The Talk Of The Town
TTITLE16=I Let A Song Go Out Of You
TTITLE17=It Don't Mean A Thing
EXTD=
EXTT0=
EXTT1=
EXTT2=
EXTT3=
EXTT4=
EXTT5=
EXTT6=
EXTT7=
EXTT8=
EXTT9=
EXTT10=
EXTT11=
EXTT12=
EXTT13=
EXTT14=
EXTT15=
EXTT16=
EXTT17=
PLAYORDER=
